# xmcd CD database file
#
# Track frame offsets:
#	150
#	32983
#	52845
#	81768
#	92992
#	129981
#	141042
#	160724
#	178710
#
# Disc length: 2890 seconds
#
# Revision: 1
# Processed by: cddbd v1.5.2PL0 Copyright (c) Steve Scherf et al.
# Submitted via: CDex 1.51
#
DISCID=6d0b4809
DTITLE=Relaxing Harmony - Orient Express - Wschodnie Inspiracje
DYEAR=2004
DGENRE=New Age
TTITLE0=Lila Sekri
TTITLE1=Hasni
TTITLE2=Mami
TTITLE3=Taher
TTITLE4=Benchenet
TTITLE5=Kaba
TTITLE6=Kader
TTITLE7=Khaled
TTITLE8=Bon On Bienne
EXTD=YEAR: 2004
EXTT0=
EXTT1=
EXTT2=
EXTT3=
EXTT4=
EXTT5=
EXTT6=
EXTT7=
EXTT8=
PLAYORDER=
